<svg width="245" height="52" xmlns="http://www.w3.org/2000/svg" xmlns:xlink="http://www.w3.org/1999/xlink" overflow="hidden"><defs><clipPath id="clip0"><rect x="517" y="654" width="245" height="52"/></clipPath><clipPath id="clip1"><rect x="518" y="655" width="244" height="51"/></clipPath><clipPath id="clip2"><rect x="518" y="655" width="244" height="51"/></clipPath><clipPath id="clip3"><rect x="518" y="655" width="244" height="51"/></clipPath><linearGradient x1="0" y1="24.8575" x2="46.3431" y2="24.8575" gradientUnits="userSpaceOnUse" spreadMethod="pad" id="stroke4"><stop offset="0" stop-color="#41B8B3" stop-opacity="1"/><stop offset="1" stop-color="#41B8B3" stop-opacity="1"/><stop offset="1" stop-color="#4984C4" stop-opacity="1"/></linearGradient><linearGradient x1="0" y1="21.8992" x2="46.3431" y2="21.8992" gradientUnits="userSpaceOnUse" spreadMethod="pad" id="fill5"><stop offset="0" stop-color="#41B8B3" stop-opacity="1"/><stop offset="1" stop-color="#41B8B3" stop-opacity="1"/><stop offset="1" stop-color="#4984C4" stop-opacity="1"/></linearGradient><linearGradient x1="228.757" y1="524.653" x2="426.025" y2="524.653" gradientUnits="userSpaceOnUse" spreadMethod="pad" id="fill6"><stop offset="0" stop-color="#41B8B3" stop-opacity="1"/><stop offset="0.76" stop-color="#4984C4" stop-opacity="1"/><stop offset="1" stop-color="#4984C4" stop-opacity="1"/></linearGradient><linearGradient x1="228.757" y1="524.653" x2="426.025" y2="524.653" gradientUnits="userSpaceOnUse" spreadMethod="pad" id="fill7"><stop offset="0" stop-color="#41B8B3" stop-opacity="1"/><stop offset="0.76" stop-color="#4984C4" stop-opacity="1"/><stop offset="1" stop-color="#4984C4" stop-opacity="1"/></linearGradient><linearGradient x1="228.757" y1="524.653" x2="426.025" y2="524.653" gradientUnits="userSpaceOnUse" spreadMethod="pad" id="fill8"><stop offset="0" stop-color="#41B8B3" stop-opacity="1"/><stop offset="0.76" stop-color="#4984C4" stop-opacity="1"/><stop offset="1" stop-color="#4984C4" stop-opacity="1"/></linearGradient><linearGradient x1="228.757" y1="524.653" x2="426.025" y2="524.653" gradientUnits="userSpaceOnUse" spreadMethod="pad" id="fill9"><stop offset="0" stop-color="#41B8B3" stop-opacity="1"/><stop offset="0.76" stop-color="#4984C4" stop-opacity="1"/><stop offset="1" stop-color="#4984C4" stop-opacity="1"/></linearGradient><linearGradient x1="228.757" y1="524.653" x2="426.025" y2="524.653" gradientUnits="userSpaceOnUse" spreadMethod="pad" id="fill10"><stop offset="0" stop-color="#41B8B3" stop-opacity="1"/><stop offset="0.76" stop-color="#4984C4" stop-opacity="1"/><stop offset="1" stop-color="#4984C4" stop-opacity="1"/></linearGradient><linearGradient x1="228.757" y1="524.653" x2="426.025" y2="524.653" gradientUnits="userSpaceOnUse" spreadMethod="pad" id="fill11"><stop offset="0" stop-color="#41B8B3" stop-opacity="1"/><stop offset="0.76" stop-color="#4984C4" stop-opacity="1"/><stop offset="1" stop-color="#4984C4" stop-opacity="1"/></linearGradient><linearGradient x1="228.757" y1="524.653" x2="426.025" y2="524.653" gradientUnits="userSpaceOnUse" spreadMethod="pad" id="fill12"><stop offset="0" stop-color="#41B8B3" stop-opacity="1"/><stop offset="0.76" stop-color="#4984C4" stop-opacity="1"/><stop offset="1" stop-color="#4984C4" stop-opacity="1"/></linearGradient><linearGradient x1="228.757" y1="524.653" x2="426.025" y2="524.653" gradientUnits="userSpaceOnUse" spreadMethod="pad" id="fill13"><stop offset="0" stop-color="#41B8B3" stop-opacity="1"/><stop offset="0.76" stop-color="#4984C4" stop-opacity="1"/><stop offset="1" stop-color="#4984C4" stop-opacity="1"/></linearGradient><linearGradient x1="228.757" y1="524.653" x2="426.025" y2="524.653" gradientUnits="userSpaceOnUse" spreadMethod="pad" id="fill14"><stop offset="0" stop-color="#41B8B3" stop-opacity="1"/><stop offset="0.76" stop-color="#4984C4" stop-opacity="1"/><stop offset="1" stop-color="#4984C4" stop-opacity="1"/></linearGradient><linearGradient x1="228.757" y1="524.653" x2="426.025" y2="524.653" gradientUnits="userSpaceOnUse" spreadMethod="pad" id="fill15"><stop offset="0" stop-color="#41B8B3" stop-opacity="1"/><stop offset="0.76" stop-color="#4984C4" stop-opacity="1"/><stop offset="1" stop-color="#4984C4" stop-opacity="1"/></linearGradient></defs><g clip-path="url(#clip0)" transform="translate(-517 -654)"><g clip-path="url(#clip1)"><g clip-path="url(#clip2)"><g clip-path="url(#clip3)"><path d="M1.14071 49.1761 14.5034 20.3824 23.5037 34.773 37.3553 3.44721 44.2246 23.5915" stroke="url(#stroke4)" stroke-width="2.50706" stroke-linecap="butt" stroke-linejoin="miter" stroke-miterlimit="10" fill="none" fill-rule="nonzero" transform="matrix(1 0 0 1.01895 518 655.178)"/><path d="M38.5962 20.2445 43.9864 22.902 46.6439 17.4993 47.8097 20.9089 45.1522 26.3116 39.762 23.6541 38.5962 20.2445Z" fill="url(#fill5)" fill-rule="nonzero" transform="matrix(1 0 0 1.01895 518 655.178)"/><path d="M247.472 527.549C247.486 528.335 247.393 529.12 247.196 529.88L230.988 529.88 230.988 527.862 240.039 527.862C242.082 527.862 242.546 526.985 242.546 525.43 242.546 522.823 240.866 521.031 238.785 521.031 236.704 521.031 234.172 523.136 234.172 529.266 234.172 534.569 236.817 537.189 240.528 537.189 242.69 537.196 244.74 536.217 246.093 534.531L247.347 535.609C245.757 538.841 242.394 540.813 238.798 540.623 232.844 540.623 228.77 536.612 228.77 529.931 228.77 523.249 233.784 519.012 239.124 519.012 244.125 518.962 247.472 522.384 247.472 527.549Z" fill="#000000" fill-rule="nonzero" fill-opacity="1" transform="matrix(1 0 0 1.01895 335.987 152.716)"/><path d="M261.374 537.54C263.48 537.54 264.947 536.286 266.589 534.005L267.04 534.92C265.172 538.68 262.866 540.573 259.306 540.573 254.291 540.573 250.706 536.512 250.706 529.943 250.706 523.375 254.918 518.962 259.945 518.962 263.016 518.962 264.959 520.479 267.04 524.039L266.614 525.004C264.545 522.811 263.091 521.946 261.412 521.946 258.528 521.946 256.159 524.453 256.159 529.868 256.159 535.033 258.34 537.54 261.374 537.54ZM273.044 538.229 273.044 539.971 265.598 540.423 265.109 536.361 265.109 523.036 265.31 522.522 265.31 512.695 261.988 512.268 261.988 510.626 269.773 508.708 270.412 509.097 270.249 515.101 270.249 539.946 268.431 537.301Z" fill="#000000" fill-rule="nonzero" fill-opacity="1" transform="matrix(1 0 0 1.01895 335.987 152.716)"/><path d="M277.946 539.971C278.033 538.054 278.071 533.704 278.071 531.021L278.071 528.99C278.071 526.646 278.071 525.33 277.946 523.625L274.887 523.237 274.887 521.657 282.596 518.95 283.273 519.401 283.148 525.368 283.148 531.009C283.148 533.654 283.148 538.041 283.273 539.959ZM285.793 538.229 285.793 539.971 275.225 539.971 275.225 538.229 279.538 537.377 281.593 537.377ZM277.331 511.905C277.235 510.129 278.596 508.609 280.372 508.513 282.149 508.415 283.668 509.778 283.765 511.554 283.862 513.33 282.5 514.849 280.723 514.946 280.667 514.95 280.609 514.951 280.553 514.951 278.866 515.041 277.425 513.747 277.335 512.06 277.334 512.025 277.333 511.99 277.331 511.955Z" fill="#000000" fill-rule="nonzero" fill-opacity="1" transform="matrix(1 0 0 1.01895 335.987 152.716)"/><path d="M288.576 513.697 288.576 511.704 294.994 511.704 294.994 514.337 294.442 514.337ZM295.834 537.326 301.7 537.966 301.7 539.971 288.576 539.971 288.576 537.966 294.442 537.326ZM292.211 524.917C292.211 520.517 292.211 516.142 292.085 511.704L297.864 511.704C297.739 516.004 297.739 520.479 297.739 524.917L297.739 527.511C297.739 531.422 297.739 535.584 297.864 539.971L292.073 539.971C292.198 535.672 292.198 531.197 292.198 526.759ZM299.469 528.978 294.969 528.978 294.969 526.797 299.82 526.797C304.307 526.797 306.263 524.102 306.263 520.128 306.263 516.154 304.069 513.86 299.644 513.86L294.969 513.86 294.969 511.654 300.083 511.654C308.081 511.654 311.653 515.064 311.653 520.103 311.678 524.967 308.469 528.99 299.494 528.99Z" fill="#000000" fill-rule="nonzero" fill-opacity="1" transform="matrix(1 0 0 1.01895 335.987 152.716)"/><path d="M316.517 531.021 316.517 528.765C316.517 526.421 316.517 525.343 316.391 523.638L313.383 523.249 313.383 521.67 320.516 518.962 321.205 519.413 321.644 524.691 321.644 531.021C321.644 533.666 321.644 538.054 321.782 539.971L316.391 539.971C316.479 538.054 316.517 533.666 316.517 531.021ZM313.734 538.229 318.109 537.377 320.804 537.377 325.179 538.229 325.179 539.971 313.734 539.971ZM319.212 525.33 322.032 525.33 321.218 526.07C322.271 521.457 325.053 518.962 327.585 518.962 329.106 518.878 330.492 519.831 330.957 521.281 330.957 523.387 329.905 524.578 328.2 524.578 327.04 524.552 325.958 523.993 325.266 523.061L324.013 521.808 325.918 521.908C323.678 523.361 322.105 525.641 321.543 528.251L319.162 528.1Z" fill="#000000" fill-rule="nonzero" fill-opacity="1" transform="matrix(1 0 0 1.01895 335.987 152.716)"/><path d="M350.826 527.549C350.84 528.335 350.747 529.12 350.55 529.88L334.342 529.88 334.342 527.862 343.393 527.862C345.436 527.862 345.9 526.985 345.9 525.43 345.9 522.823 344.22 521.031 342.139 521.031 340.058 521.031 337.513 523.136 337.513 529.266 337.513 534.569 340.171 537.189 343.881 537.189 346.044 537.196 348.093 536.217 349.447 534.531L350.701 535.609C349.111 538.841 345.748 540.813 342.152 540.623 336.185 540.623 332.123 536.612 332.123 529.931 332.123 523.249 337.137 519.012 342.477 519.012 347.479 518.962 350.826 522.384 350.826 527.549Z" fill="#000000" fill-rule="nonzero" fill-opacity="1" transform="matrix(1 0 0 1.01895 335.987 152.716)"/><path d="M364.778 537.54C366.884 537.54 368.35 536.286 369.992 534.005L370.444 534.92C368.563 538.68 366.27 540.573 362.709 540.573 357.695 540.573 354.11 536.512 354.11 529.943 354.11 523.375 358.322 518.962 363.349 518.962 366.42 518.962 368.363 520.479 370.431 524.039L370.005 525.004C367.949 522.811 366.495 521.946 364.803 521.946 361.92 521.946 359.563 524.453 359.563 529.868 359.513 535.033 361.694 537.54 364.778 537.54ZM376.448 538.229 376.448 539.971 369.002 540.423 368.513 536.361 368.513 523.036 368.701 522.522 368.701 512.695 365.392 512.268 365.392 510.626 373.176 508.708 373.816 509.097 373.64 515.101 373.64 539.946 371.835 537.301Z" fill="#000000" fill-rule="nonzero" fill-opacity="1" transform="matrix(1 0 0 1.01895 335.987 152.716)"/><path d="M381.299 539.971C381.387 538.054 381.425 533.704 381.425 531.021L381.425 528.99C381.425 526.646 381.425 525.33 381.299 523.625L378.241 523.237 378.241 521.657 385.95 518.95 386.627 519.401 386.501 525.368 386.501 531.009C386.501 533.654 386.501 538.041 386.627 539.959ZM389.146 538.229 389.146 539.971 378.567 539.971 378.567 538.229 382.879 537.377 384.935 537.377ZM380.685 511.905C380.589 510.129 381.95 508.609 383.726 508.513 385.502 508.415 387.022 509.778 387.118 511.554 387.216 513.33 385.853 514.849 384.077 514.946 384.021 514.95 383.963 514.951 383.907 514.951 382.219 515.041 380.779 513.747 380.689 512.06 380.688 512.025 380.686 511.99 380.685 511.955Z" fill="#000000" fill-rule="nonzero" fill-opacity="1" transform="matrix(1 0 0 1.01895 335.987 152.716)"/><path d="M397.144 529.229C397.144 534.368 399.751 537.189 403.537 537.189 405.691 537.191 407.705 536.124 408.915 534.343L410.168 535.258C408.764 538.768 405.869 540.573 401.845 540.573 396.028 540.573 391.816 536.662 391.816 529.818 391.531 524.113 395.924 519.258 401.629 518.972 401.88 518.96 402.132 518.956 402.384 518.962 406.533 518.962 409.692 521.544 410.118 524.829 409.938 525.996 408.888 526.827 407.711 526.734 406.169 526.734 405.204 525.781 404.941 523.726L404.214 520.341 406.721 522.008C405.505 521.377 404.156 521.041 402.785 521.031 399.801 521.031 397.144 523.625 397.144 529.229Z" fill="#000000" fill-rule="nonzero" fill-opacity="1" transform="matrix(1 0 0 1.01895 335.987 152.716)"/><path d="M422.44 537.765C423.399 537.709 424.313 537.333 425.035 536.7L426.05 537.79C424.829 539.672 422.685 540.742 420.447 540.586 417.038 540.586 414.994 538.956 414.994 535.208 414.994 533.954 414.994 532.927 414.994 531.272L414.994 522.159 411.835 522.159 411.835 519.965 417 519.301 414.919 520.843 416.912 513.672 420.334 513.672 420.121 521.193 420.121 534.669C420.134 536.825 421.061 537.765 422.44 537.765ZM425.323 519.576 425.323 522.159 417.614 522.159 417.614 519.576Z" fill="#000000" fill-rule="nonzero" fill-opacity="1" transform="matrix(1 0 0 1.01895 335.987 152.716)"/><path d="M247.472 527.549C247.486 528.335 247.393 529.12 247.196 529.88L230.988 529.88 230.988 527.862 240.039 527.862C242.082 527.862 242.546 526.985 242.546 525.43 242.546 522.823 240.866 521.031 238.785 521.031 236.704 521.031 234.172 523.136 234.172 529.266 234.172 534.569 236.817 537.189 240.528 537.189 242.69 537.196 244.74 536.217 246.093 534.531L247.347 535.609C245.757 538.841 242.394 540.813 238.798 540.623 232.844 540.623 228.77 536.612 228.77 529.931 228.77 523.249 233.784 519.012 239.124 519.012 244.125 518.962 247.472 522.384 247.472 527.549Z" fill="url(#fill6)" fill-rule="nonzero" transform="matrix(1 0 0 1.01895 335.987 152.716)"/><path d="M261.374 537.54C263.48 537.54 264.947 536.286 266.589 534.005L267.04 534.92C265.172 538.68 262.866 540.573 259.306 540.573 254.291 540.573 250.706 536.512 250.706 529.943 250.706 523.375 254.918 518.962 259.945 518.962 263.016 518.962 264.959 520.479 267.04 524.039L266.614 525.004C264.545 522.811 263.091 521.946 261.412 521.946 258.528 521.946 256.159 524.453 256.159 529.868 256.159 535.033 258.34 537.54 261.374 537.54ZM273.044 538.229 273.044 539.971 265.598 540.423 265.109 536.361 265.109 523.036 265.31 522.522 265.31 512.695 261.988 512.268 261.988 510.626 269.773 508.708 270.412 509.097 270.249 515.101 270.249 539.946 268.431 537.301Z" fill="url(#fill7)" fill-rule="nonzero" transform="matrix(1 0 0 1.01895 335.987 152.716)"/><path d="M277.946 539.971C278.033 538.054 278.071 533.704 278.071 531.021L278.071 528.99C278.071 526.646 278.071 525.33 277.946 523.625L274.887 523.237 274.887 521.657 282.596 518.95 283.273 519.401 283.148 525.368 283.148 531.009C283.148 533.654 283.148 538.041 283.273 539.959ZM285.793 538.229 285.793 539.971 275.225 539.971 275.225 538.229 279.538 537.377 281.593 537.377ZM277.331 511.905C277.235 510.129 278.596 508.609 280.372 508.513 282.149 508.415 283.668 509.778 283.765 511.554 283.862 513.33 282.5 514.849 280.723 514.946 280.667 514.95 280.609 514.951 280.553 514.951 278.866 515.041 277.425 513.747 277.335 512.06 277.334 512.025 277.333 511.99 277.331 511.955Z" fill="url(#fill8)" fill-rule="nonzero" transform="matrix(1 0 0 1.01895 335.987 152.716)"/><path d="M288.576 513.697 288.576 511.704 294.994 511.704 294.994 514.337 294.442 514.337ZM295.834 537.326 301.7 537.966 301.7 539.971 288.576 539.971 288.576 537.966 294.442 537.326ZM292.211 524.917C292.211 520.517 292.211 516.142 292.085 511.704L297.864 511.704C297.739 516.004 297.739 520.479 297.739 524.917L297.739 527.511C297.739 531.422 297.739 535.584 297.864 539.971L292.073 539.971C292.198 535.672 292.198 531.197 292.198 526.759ZM299.469 528.978 294.969 528.978 294.969 526.797 299.82 526.797C304.307 526.797 306.263 524.102 306.263 520.128 306.263 516.154 304.069 513.86 299.644 513.86L294.969 513.86 294.969 511.654 300.083 511.654C308.081 511.654 311.653 515.064 311.653 520.103 311.678 524.967 308.469 528.99 299.494 528.99Z" fill="url(#fill9)" fill-rule="nonzero" transform="matrix(1 0 0 1.01895 335.987 152.716)"/><path d="M316.517 531.021 316.517 528.765C316.517 526.421 316.517 525.343 316.391 523.638L313.383 523.249 313.383 521.67 320.516 518.962 321.205 519.413 321.644 524.691 321.644 531.021C321.644 533.666 321.644 538.054 321.782 539.971L316.391 539.971C316.479 538.054 316.517 533.666 316.517 531.021ZM313.734 538.229 318.109 537.377 320.804 537.377 325.179 538.229 325.179 539.971 313.734 539.971ZM319.212 525.33 322.032 525.33 321.218 526.07C322.271 521.457 325.053 518.962 327.585 518.962 329.106 518.878 330.492 519.831 330.957 521.281 330.957 523.387 329.905 524.578 328.2 524.578 327.04 524.552 325.958 523.993 325.266 523.061L324.013 521.808 325.918 521.908C323.678 523.361 322.105 525.641 321.543 528.251L319.162 528.1Z" fill="url(#fill10)" fill-rule="nonzero" transform="matrix(1 0 0 1.01895 335.987 152.716)"/><path d="M350.826 527.549C350.84 528.335 350.747 529.12 350.55 529.88L334.342 529.88 334.342 527.862 343.393 527.862C345.436 527.862 345.9 526.985 345.9 525.43 345.9 522.823 344.22 521.031 342.139 521.031 340.058 521.031 337.513 523.136 337.513 529.266 337.513 534.569 340.171 537.189 343.881 537.189 346.044 537.196 348.093 536.217 349.447 534.531L350.701 535.609C349.111 538.841 345.748 540.813 342.152 540.623 336.185 540.623 332.123 536.612 332.123 529.931 332.123 523.249 337.137 519.012 342.477 519.012 347.479 518.962 350.826 522.384 350.826 527.549Z" fill="url(#fill11)" fill-rule="nonzero" transform="matrix(1 0 0 1.01895 335.987 152.716)"/><path d="M364.778 537.54C366.884 537.54 368.35 536.286 369.992 534.005L370.444 534.92C368.563 538.68 366.27 540.573 362.709 540.573 357.695 540.573 354.11 536.512 354.11 529.943 354.11 523.375 358.322 518.962 363.349 518.962 366.42 518.962 368.363 520.479 370.431 524.039L370.005 525.004C367.949 522.811 366.495 521.946 364.803 521.946 361.92 521.946 359.563 524.453 359.563 529.868 359.513 535.033 361.694 537.54 364.778 537.54ZM376.448 538.229 376.448 539.971 369.002 540.423 368.513 536.361 368.513 523.036 368.701 522.522 368.701 512.695 365.392 512.268 365.392 510.626 373.176 508.708 373.816 509.097 373.64 515.101 373.64 539.946 371.835 537.301Z" fill="url(#fill12)" fill-rule="nonzero" transform="matrix(1 0 0 1.01895 335.987 152.716)"/><path d="M381.299 539.971C381.387 538.054 381.425 533.704 381.425 531.021L381.425 528.99C381.425 526.646 381.425 525.33 381.299 523.625L378.241 523.237 378.241 521.657 385.95 518.95 386.627 519.401 386.501 525.368 386.501 531.009C386.501 533.654 386.501 538.041 386.627 539.959ZM389.146 538.229 389.146 539.971 378.567 539.971 378.567 538.229 382.879 537.377 384.935 537.377ZM380.685 511.905C380.589 510.129 381.95 508.609 383.726 508.513 385.502 508.415 387.022 509.778 387.118 511.554 387.216 513.33 385.853 514.849 384.077 514.946 384.021 514.95 383.963 514.951 383.907 514.951 382.219 515.041 380.779 513.747 380.689 512.06 380.688 512.025 380.686 511.99 380.685 511.955Z" fill="url(#fill13)" fill-rule="nonzero" transform="matrix(1 0 0 1.01895 335.987 152.716)"/><path d="M397.144 529.229C397.144 534.368 399.751 537.189 403.537 537.189 405.691 537.191 407.705 536.124 408.915 534.343L410.168 535.258C408.764 538.768 405.869 540.573 401.845 540.573 396.028 540.573 391.816 536.662 391.816 529.818 391.531 524.113 395.924 519.258 401.629 518.972 401.88 518.96 402.132 518.956 402.384 518.962 406.533 518.962 409.692 521.544 410.118 524.829 409.938 525.996 408.888 526.827 407.711 526.734 406.169 526.734 405.204 525.781 404.941 523.726L404.214 520.341 406.721 522.008C405.505 521.377 404.156 521.041 402.785 521.031 399.801 521.031 397.144 523.625 397.144 529.229Z" fill="url(#fill14)" fill-rule="nonzero" transform="matrix(1 0 0 1.01895 335.987 152.716)"/><path d="M422.44 537.765C423.399 537.709 424.313 537.333 425.035 536.7L426.05 537.79C424.829 539.672 422.685 540.742 420.447 540.586 417.038 540.586 414.994 538.956 414.994 535.208 414.994 533.954 414.994 532.927 414.994 531.272L414.994 522.159 411.835 522.159 411.835 519.965 417 519.301 414.919 520.843 416.912 513.672 420.334 513.672 420.121 521.193 420.121 534.669C420.134 536.825 421.061 537.765 422.44 537.765ZM425.323 519.576 425.323 522.159 417.614 522.159 417.614 519.576Z" fill="url(#fill15)" fill-rule="nonzero" transform="matrix(1 0 0 1.01895 335.987 152.716)"/></g></g></g></g></svg>